{"title":"The.Head.And.The.Heart.iHeart.720p.HDTV.x264-TheRealTTL","uid":15775758,"size":1793903958,"categoryP":"video","categoryS":"hd___tv_shows","magnet":"?xt=urn:btih:20fd87c8fb9a3b3efe110f0322066fc3ad0ef245&amp;dn=The.Head.And.The.Heart.iHeart.720p.HDTV.x264-TheRealTTL&amp;tr=udp%3A%2F%2Ftracker.leechers-paradise.org%3A6969&amp;tr=udp%3A%2F%2Fzer0day.ch%3A1337&amp;tr=udp%3A%2F%2Fopen.demonii.com%3A1337&amp;tr=udp%3A%2F%2Ftracker.coppersurfer.tk%3A6969&amp;tr=udp%3A%2F%2Fexodus.desync.com%3A6969","seeders":1,"leechers":0,"uploader":"thetorrentlord","files":3,"time":1473227337,"description":"Live album release concert for iHeart.\t\t\t\t\t\t\t\t\t\t\t\t\t\t\t\t\t\t\t\t\tGrab the sample and if you like it go for it.\t\t\t\t\t\t\t\t\t\t\t\t\t\t\t\t\t\t\t\tEnjoy and please share!!!\t\t\t\t\t\t\t\t\t\t\t\t\t\t\t\t\t\t\t\t\t\t\t\t\t\t\t\t\t\t\t\t\t\t\tThe.Head.And.The.Heart.iHeart.Album.Release.Party.9-2-2016.720p.HDTV.x264-TheRealTTL.mkv\r\nFormat                           : Matroska\r\nFormat version                   : Version 2\r\nFile size                        : 1.64 GiB\r\nDuration                         : 57mn 45s\r\nOverall bit rate                 : 4 064 Kbps\r\nMovie name                       : The.Head.And.The.Heart.iHeart.Album.Release.Party.9-2-2016.720p.HDTV.x264-TheRealTTLL\r\nEncoded date                     : UTC 2016-09-06 16:59:40\r\nWriting application              : mkvmerge v3.3.0 ('Language') built on Mar 24 2010 14:59:24\r\nWriting library                  : libebml v0.8.0 + libmatroska v0.9.0\r\n\r\nVideo\r\nID                               : 1\r\nFormat                           : AVC\r\nFormat/Info                      : Advanced Video Codec\r\nFormat profile                   :   \r\nFormat settings, CABAC           : Yes\r\nFormat settings, ReFrames        : 4 frames\r\nCodec ID                         : V_MPEG4/ISO/AVC\r\nDuration                         : 57mn 45s\r\nBit rate                         : 3 742 Kbps\r\nWidth                            : 1 280 pixels\r\nHeight                           : 720 pixels\r\nDisplay aspect ratio             : 16:9\r\nFrame rate mode                  : Variable\r\nFrame rate                       : 29.970 fps\r\nColor space                      : YUV\r\nChroma subsampling               : 4:2:0\r\nBit depth                        : 8 bits\r\nScan type                        : Progressive\r\nBits/(Pixel*Frame)               : 0.135\r\nStream size                      : 1.48 GiB (90%)\r\nTitle                            : The.Head.And.The.Heart.iHeart.Album.Release.Party.9-2-2016.720p.HDTV.x264-TheRealTTL\r\nWriting library                  : x264 core 142 r2479 dd79a61\r\n\r\nLanguage                         : English\r\nDefault                          : No\r\nForced                           : No\r\nColor primaries                  : BT.709-5, BT.1361, IEC 61966-2-4, SMPTE RP177\r\nTransfer characteristics         : BT.709-5, BT.1361\r\nMatrix coefficients              : BT.709-5, BT.1361, IEC 61966-2-4 709, SMPTE RP177\r\n\r\nAudio\r\nID                               : 2\r\nFormat                           : AC-3\r\nFormat/Info                      : Audio Coding 3\r\nMode extension                   : CM (complete main)\r\nCodec ID                         : A_AC3\r\nDuration                         : 57mn 45s\r\nBit rate mode                    : Constant\r\nBit rate                         : 320 Kbps\r\nChannel(s)                       : 2 channels\r\nChannel positions                : Front: L R\r\nSampling rate                    : 48.0 KHz\r\nBit depth                        : 16 bits\r\nCompression mode                 : Lossy\r\nDelay relative to video          : -5ms\r\nStream size                      : 132 MiB (8%)\r\nTitle                            : The.Head.And.The.Heart.iHeart.Album.Release.Party.9-2-2016.720p.HDTV.x264-TheRealTTL\r\nLanguage                         : English\r\nDefault                          : No\r\nForced                           : No\r\n\r\nMenu\r\n00:00:00.000                     : :Chapter 1\r\n00:06:00.000                     : :Chapter 2\r\n00:12:00.000                     : :Chapter 3\r\n00:18:00.000                     : :Chapter 4\r\n00:24:00.000                     : :Chapter 5\r\n00:30:00.000                     : :Chapter 6\r\n00:36:00.000                     : :Chapter 7\r\n00:42:00.000                     : :Chapter 8\r\n00:48:00.000                     : :Chapter 9\r\n00:54:00.000                     : :Chapter 10","torrent":{"xt":"urn:btih:20fd87c8fb9a3b3efe110f0322066fc3ad0ef245","amp;dn":"The.Head.And.The.Heart.iHeart.720p.HDTV.x264-TheRealTTL","amp;tr":["udp%3A%2F%2Ftracker.leechers-paradise.org%3A6969","udp%3A%2F%2Fzer0day.ch%3A1337","udp%3A%2F%2Fopen.demonii.com%3A1337","udp%3A%2F%2Ftracker.coppersurfer.tk%3A6969","udp%3A%2F%2Fexodus.desync.com%3A6969"],"infoHash":"20fd87c8fb9a3b3efe110f0322066fc3ad0ef245","infoHashBuffer":{"type":"Buffer","data":[32,253,135,200,251,154,59,62,254,17,15,3,34,6,111,195,173,14,242,69]},"announce":[],"urlList":[]}}